{"title":"Naruto Shippuuden 273 mkv 60 mb Bzingaz.mkv","uid":7517693,"size":61404787,"categoryP":"video","categoryS":"tv_shows","magnet":"?xt=urn:btih:8c9cdd1d39bd569df0d2c2ef0a6f1b973da489e0&amp;dn=Naruto+Shippuuden+273+mkv+60+mb+Bzingaz.mkv&amp;tr=udp%3A%2F%2Ftracker.openbittorrent.com%3A80&amp;tr=udp%3A%2F%2Fopen.demonii.com%3A1337&amp;tr=udp%3A%2F%2Ftracker.coppersurfer.tk%3A6969&amp;tr=udp%3A%2F%2Fexodus.desync.com%3A6969","seeders":0,"leechers":0,"uploader":"bzingaz","files":1,"time":1344525048,"description":"Naruto_Shippuuden_273 Eng Subbed BZINGAZ in mkv format 60 mb size. \n\nDownload**Enjoy**Seed\n\nNaruto Shippuuden 273 mkv 60 mb Bzingaz.mkv\n\n\nVideo\nID                               : 1\nFormat                           : AVC\nFormat/Info                      : Advanced Video Codec\nFormat profile                   : &lt;a class=&quot;__cf_email__&quot; href=&quot;/cdn-cgi/l/email-protection&quot; data-cfemail=&quot;e5ad8c828da5a9d6cbd4&quot;&gt;[email&amp;#160;protected]&lt;/a&gt;&lt;script cf-hash='f9e31' type=&quot;text/javascript&quot;&gt;\n/* &lt;![CDATA[ */!function(){try{var t=&quot;currentScript&quot;in document?document.currentScript:function(){for(var t=document.getElementsByTagName(&quot;script&quot;),e=t.length;e--;)if(t[e].getAttribute(&quot;cf-hash&quot;))return t[e]}();if(t&amp;&amp;t.previousSibling){var e,r,n,i,c=t.previousSibling,a=c.getAttribute(&quot;data-cfemail&quot;);if(a){for(e=&quot;&quot;,r=parseInt(a.substr(0,2),16),n=2;a.length-n;n+=2)i=parseInt(a.substr(n,2),16)^r,e+=String.fromCharCode(i);e=document.createTextNode(e),c.parentNode.replaceChild(e,c)}}}catch(u){}}();/* ]]&gt; */&lt;/script&gt;\nFormat settings, CABAC           : Yes\nFormat settings, ReFrames        : 8 frames\nCodec ID                         : V_MPEG4/ISO/AVC\nDuration                         : 23mn 9s\nBit rate                         : 305 Kbps\nWidth                            : 848 pixels\nHeight                           : 480 pixels\nDisplay aspect ratio             : 16:9\nFrame rate mode                  : Variable\nFrame rate                       : 23.976 fps\nColor space                      : YUV\nChroma subsampling               : 4:2:0\nBit depth                        : 8 bits\nScan type                        : Progressive\nBits/(Pixel*Frame)               : 0.031\nStream size                      : 49.4 MiB (84%)\nWriting library                  : x264 core 120\n\nAudio\nID                               : 2\nFormat                           : Vorbis\nFormat settings, Floor           : 1\nCodec ID                         : A_VORBIS\nDuration                         : 23mn 9s\nBit rate                         : 48.0 Kbps\nChannel(s)                       : 2 channels\nSampling rate                    : 44.1 KHz\nCompression mode                 : Lossy\nStream size                      : 7.95 MiB (14%)\nWriting library                  : aoTuV 20110424 (UTC 2011-04-24)\nLanguage                         : un\n\nText\nID                               : 3\nFormat                           : SSA\nCodec ID                         : S_TEXT/SSA\nCodec ID/Info                    : Sub Station Alpha\nCompression mode                 : Lossless\n","torrent":{"xt":"urn:btih:8c9cdd1d39bd569df0d2c2ef0a6f1b973da489e0","amp;dn":"Naruto+Shippuuden+273+mkv+60+mb+Bzingaz.mkv","amp;tr":["udp%3A%2F%2Ftracker.openbittorrent.com%3A80","udp%3A%2F%2Fopen.demonii.com%3A1337","udp%3A%2F%2Ftracker.coppersurfer.tk%3A6969","udp%3A%2F%2Fexodus.desync.com%3A6969"],"infoHash":"8c9cdd1d39bd569df0d2c2ef0a6f1b973da489e0","infoHashBuffer":{"type":"Buffer","data":[140,156,221,29,57,189,86,157,240,210,194,239,10,111,27,151,61,164,137,224]},"announce":[],"urlList":[]}}